External Loads File
version=1
nRows=93
nColumns=13
Range=5.000000e-03-10 seconds
endheader
time 	forceRightX 	forceRightY 	forceRightZ 	pointRightX 	pointRightY 	pointRightZ 	forceLeftX 	forceLeftY 	forceLeftZ 	pointLeftX 	pointLeftY 	pointLeftZ 		
5.005000 14.467504 -10.730805 -0.000000 0.206437 0.437960 -0.168578 71.674814 758.686904 -0.000000 0.360732 0.159675 -0.411888
5.010000 12.574604 -8.987712 -0.000000 0.215276 0.444617 -0.169090 92.414207 759.938956 -0.000000 0.352601 0.153351 -0.411705
5.015000 10.019593 -7.514855 -0.000000 0.224303 0.450525 -0.169509 112.102724 759.129420 -0.000000 0.344212 0.147585 -0.411606
5.020000 6.894412 -6.121779 -0.000000 0.233731 0.455833 -0.169897 131.276152 756.333802 -0.000000 0.335559 0.142335 -0.411452
5.025000 3.338385 -4.549585 -0.000000 0.243291 0.460405 -0.170033 148.894378 751.880176 -0.000000 0.326745 0.137669 -0.411336
5.030000 -0.491745 -2.540038 -0.000000 0.252867 0.464393 -0.170249 165.011573 745.911610 -0.000000 0.317711 0.133651 -0.411289
5.035000 -4.437039 0.141720 -0.000000 0.263032 0.467790 -0.170589 180.882557 738.225009 -0.000000 0.308533 0.130167 -0.411238
5.040000 -8.346493 3.665614 -0.000000 0.273076 0.470598 -0.170876 195.012261 729.150394 -0.000000 0.299215 0.127375 -0.411265
5.045000 -12.075429 8.145197 -0.000000 0.283323 0.472550 -0.171268 208.226196 718.288106 -0.000000 0.289792 0.125194 -0.411189
5.050000 -15.476124 13.624280 -0.000000 0.293489 0.473936 -0.171479 220.226957 705.265430 -0.000000 0.280248 0.123633 -0.411206
5.055000 -18.413342 20.104556 -0.000000 0.303494 0.474638 -0.171610 231.158782 689.354180 -0.000000 0.270575 0.122850 -0.411295
5.060000 -20.772308 27.590897 -0.000000 0.313500 0.474775 -0.171852 241.160741 669.613412 -0.000000 0.260937 0.122619 -0.411385
5.065000 -22.440159 36.157825 -0.000000 0.323568 0.474162 -0.172153 250.359457 644.958911 -0.000000 0.251322 0.123274 -0.411522
5.070000 -23.387270 45.943295 -0.000000 0.333079 0.472872 -0.172284 257.273944 614.933053 -0.000000 0.241698 0.124588 -0.411571
5.075000 -23.450025 57.290367 -0.000000 0.342510 0.471080 -0.172336 262.300653 578.517033 -0.000000 0.231969 0.126684 -0.411150
5.080000 -22.662314 70.563103 -0.000000 0.351472 0.468647 -0.172129 263.123867 536.171573 -0.000000 0.222755 0.129465 -0.411206
5.085000 -20.889134 86.290448 -0.000000 0.360043 0.465691 -0.172091 259.676283 487.828869 -0.000000 0.213883 0.133060 -0.411222
5.090000 -18.064521 104.987773 -0.000000 0.368330 0.462096 -0.171792 251.600910 434.078279 -0.000000 0.205405 0.137298 -0.411232
5.095000 -14.361739 127.053318 -0.000000 0.375956 0.457891 -0.171444 238.365704 376.272030 -0.000000 0.197332 0.142051 -0.411180
5.100000 -9.913054 152.723506 -0.000000 0.383075 0.453157 -0.170861 220.655501 315.628863 -0.000000 0.189613 0.147536 -0.411088
5.105000 -5.214595 181.936319 -0.000000 0.389697 0.447958 -0.170362 198.936303 253.950801 -0.000000 0.182452 0.153506 -0.410977
5.110000 -0.645132 214.315075 -0.000000 0.395869 0.441978 -0.169790 174.531795 192.775407 -0.000000 0.175784 0.159963 -0.410981
5.115000 3.101870 249.151076 -0.000000 0.401517 0.435639 -0.169295 148.606306 133.860110 -0.000000 0.169541 0.167046 -0.410907
5.120000 5.195494 285.521738 -0.000000 0.406955 0.428847 -0.168923 122.437269 78.719146 -0.000000 0.163914 0.174242 -0.410922
5.125000 5.582377 322.411400 -0.000000 0.412004 0.421314 -0.168747 97.352592 28.248368 -0.000000 0.158583 0.182044 -0.410954
5.130000 3.698959 358.855942 -0.000000 0.416706 0.413276 -0.168456 74.100737 -16.616462 -0.000000 0.153720 0.190288 -0.410834
5.135000 -0.321578 393.986294 -0.000000 0.421049 0.404731 -0.168347 53.128904 -55.374562 -0.000000 0.149194 0.198991 -0.410361
5.140000 -6.098762 427.044235 -0.000000 0.424982 0.395533 -0.168289 34.425671 -87.606624 -0.000000 0.145227 0.208193 -0.409985
5.145000 -13.869833 457.364018 -0.000000 0.428548 0.385828 -0.168239 17.939679 -112.831758 -0.000000 0.142113 0.217364 -0.410304
5.150000 -23.514689 484.409998 -0.000000 0.431686 0.375915 -0.168188 3.694301 -130.693272 -0.000000 0.139703 0.226307 -0.410505
5.155000 -33.909034 507.933166 -0.000000 0.434185 0.365784 -0.168172 -8.338222 -141.138046 -0.000000 0.137904 0.235408 -0.410650
5.160000 -44.551827 527.998132 -0.000000 0.436178 0.355479 -0.168440 -17.816214 -144.638922 -0.000000 0.136552 0.244463 -0.410596
5.165000 -53.730674 545.098698 -0.000000 0.437691 0.344892 -0.168523 -24.611212 -142.224515 -0.000000 0.135670 0.254076 -0.410539
5.170000 -61.381540 559.805957 -0.000000 0.438823 0.334115 -0.168506 -28.219117 -135.395122 -0.000000 0.135188 0.263960 -0.410414
5.175000 -66.686639 572.808724 -0.000000 0.439237 0.323110 -0.168795 -28.614088 -125.742018 -0.000000 0.135063 0.274291 -0.410383
5.180000 -70.162559 584.574597 -0.000000 0.439127 0.312145 -0.168626 -25.799936 -114.734060 -0.000000 0.135483 0.284762 -0.410257
5.185000 -71.162910 595.589502 -0.000000 0.438154 0.301150 -0.169104 -20.323634 -103.431914 -0.000000 0.136498 0.295422 -0.410121
5.190000 -69.838394 606.197083 -0.000000 0.436807 0.290143 -0.168985 -12.782346 -92.552825 -0.000000 0.138037 0.306051 -0.409926
5.195000 -65.396333 616.873975 -0.000000 0.434699 0.278880 -0.168921 -4.045938 -82.459896 -0.000000 0.140135 0.316743 -0.409775
5.200000 -59.984188 627.802839 -0.000000 0.432049 0.268127 -0.168904 5.435099 -73.299750 -0.000000 0.142909 0.327220 -0.409752
5.205000 -52.408599 639.483421 -0.000000 0.428754 0.257492 -0.168817 14.858441 -65.030913 -0.000000 0.146210 0.337646 -0.409742
5.210000 -42.119679 652.180357 -0.000000 0.424791 0.247138 -0.168698 23.688871 -57.566595 -0.000000 0.150126 0.348274 -0.409810
5.215000 -30.852050 665.868826 -0.000000 0.420208 0.237070 -0.168545 31.735425 -50.684062 -0.000000 0.154615 0.358161 -0.409871
5.220000 -15.807117 680.648743 -0.000000 0.415024 0.227147 -0.168350 38.629321 -44.376399 -0.000000 0.159701 0.368332 -0.410199
5.225000 0.754679 696.221962 -0.000000 0.409268 0.217706 -0.168137 44.573881 -38.507062 -0.000000 0.165228 0.378043 -0.410365
5.230000 20.078824 712.255843 -0.000000 0.402903 0.208608 -0.167965 49.570404 -33.225561 -0.000000 0.171262 0.387630 -0.410386
5.235000 41.744482 728.264984 -0.000000 0.395910 0.199842 -0.167733 53.698246 -28.677093 -0.000000 0.177803 0.396831 -0.410109
5.240000 64.618782 743.809921 -0.000000 0.388442 0.191561 -0.167478 56.989788 -25.013374 -0.000000 0.184877 0.405315 -0.409750
5.245000 89.247231 758.339581 -0.000000 0.380420 0.183710 -0.166799 59.292769 -22.527941 -0.000000 0.192317 0.413517 -0.409559
5.250000 114.334035 771.466508 -0.000000 0.372089 0.176406 -0.166619 60.369961 -21.288780 -0.000000 0.200349 0.421036 -0.409512
5.255000 138.804592 782.885133 -0.000000 0.363473 0.169575 -0.166499 59.911998 -21.198583 -0.000000 0.208616 0.427860 -0.409653
5.260000 162.881540 792.087203 -0.000000 0.354614 0.163278 -0.166488 57.658816 -22.087240 -0.000000 0.217447 0.434044 -0.409968
5.265000 185.740476 798.708986 -0.000000 0.345477 0.157548 -0.166335 53.534411 -23.581335 -0.000000 0.226678 0.439371 -0.410817
5.270000 206.151053 802.508855 -0.000000 0.336149 0.152361 -0.166134 47.648004 -25.204364 -0.000000 0.235803 0.444448 -0.410354
5.275000 226.043696 802.358118 -0.000000 0.326664 0.147630 -0.165938 40.178629 -26.622585 -0.000000 0.245782 0.448840 -0.410360
5.280000 242.183474 798.355463 -0.000000 0.317082 0.143731 -0.165754 31.607588 -27.190405 -0.000000 0.255351 0.452651 -0.410864
5.285000 257.292116 788.870391 -0.000000 0.307436 0.140392 -0.165553 22.301632 -26.567348 -0.000000 0.265538 0.455704 -0.410954
5.290000 269.706470 773.631957 -0.000000 0.297707 0.137568 -0.165339 12.783541 -24.308004 -0.000000 0.275573 0.458276 -0.411004
5.295000 279.845558 751.933228 -0.000000 0.287963 0.135489 -0.165132 3.459811 -20.244941 -0.000000 0.285765 0.460378 -0.411133
5.300000 286.995418 723.755776 -0.000000 0.278149 0.134120 -0.164858 -5.284457 -14.389107 -0.000000 0.295815 0.461754 -0.411118
5.305000 290.960754 689.305237 -0.000000 0.268434 0.133380 -0.164527 -13.133883 -6.908710 -0.000000 0.305874 0.462722 -0.411099
5.310000 291.873076 649.059526 -0.000000 0.258486 0.133048 -0.164430 -19.837553 1.917358 -0.000000 0.315730 0.462973 -0.411106
5.315000 289.181467 604.127560 -0.000000 0.248698 0.133758 -0.164238 -25.207549 11.733462 -0.000000 0.325344 0.462658 -0.411100
5.320000 283.346292 555.338996 -0.000000 0.238954 0.135246 -0.163927 -29.114948 22.290141 -0.000000 0.334746 0.461789 -0.411316
5.325000 273.871859 503.992504 -0.000000 0.229507 0.137349 -0.163819 -31.542611 33.491171 -0.000000 0.343689 0.460295 -0.411414
5.330000 261.646523 450.553631 -0.000000 0.220200 0.139899 -0.163741 -32.495032 45.548149 -0.000000 0.352324 0.458030 -0.411688
5.335000 246.695414 395.787512 -0.000000 0.211214 0.143258 -0.163765 -32.045396 58.851259 -0.000000 0.360460 0.455192 -0.412060
5.340000 229.781152 339.929791 -0.000000 0.202536 0.147406 -0.163748 -30.163818 74.048550 -0.000000 0.368080 0.451143 -0.412476
5.345000 210.469645 283.989823 -0.000000 0.194304 0.152169 -0.163705 -27.066792 91.804033 -0.000000 0.375189 0.447232 -0.412856
5.350000 189.643417 228.182540 -0.000000 0.186468 0.157735 -0.163544 -22.796622 112.879434 -0.000000 0.381687 0.442693 -0.413245
5.355000 167.486486 173.356438 -0.000000 0.179173 0.163830 -0.163373 -17.722155 137.841792 -0.000000 0.387472 0.437711 -0.413529
5.360000 144.869399 119.889664 -0.000000 0.172041 0.170386 -0.163380 -11.916103 167.090257 -0.000000 0.393072 0.432224 -0.413993
5.365000 122.051193 68.757067 -0.000000 0.164932 0.177365 -0.163548 -5.936292 200.615051 -0.000000 0.397933 0.426178 -0.414264
5.370000 99.457017 20.843617 -0.000000 0.158851 0.184849 -0.163484 -0.617432 238.000083 -0.000000 0.402357 0.419550 -0.414476
5.375000 77.543352 -23.262136 -0.000000 0.153495 0.192731 -0.163227 3.620939 278.418525 -0.000000 0.406512 0.412236 -0.414652
5.380000 56.440848 -62.859776 -0.000000 0.148479 0.201065 -0.163587 6.572868 320.664397 -0.000000 0.410495 0.404347 -0.414965
5.385000 36.291351 -97.108984 -0.000000 0.144176 0.209869 -0.164018 7.650505 363.262016 -0.000000 0.413926 0.395865 -0.415064
5.390000 17.356617 -125.340827 -0.000000 0.140559 0.218618 -0.164352 6.545091 404.619812 -0.000000 0.417221 0.386865 -0.415058
5.395000 0.070714 -147.117834 -0.000000 0.137539 0.227279 -0.164315 2.990698 443.264545 -0.000000 0.420109 0.377497 -0.415051
5.400000 -15.246329 -162.345143 -0.000000 0.135249 0.236146 -0.164127 -2.533155 478.045079 -0.000000 0.422677 0.367807 -0.414977
5.405000 -28.279616 -171.268322 -0.000000 0.133342 0.245151 -0.163856 -9.434726 508.282413 -0.000000 0.424858 0.357734 -0.414912
5.410000 -38.668287 -174.486621 -0.000000 0.131885 0.254400 -0.163600 -17.273221 533.801861 -0.000000 0.426627 0.347394 -0.414947
5.415000 -46.097467 -172.857661 -0.000000 0.130927 0.263817 -0.163331 -25.666769 554.863383 -0.000000 0.428121 0.336874 -0.414352
5.420000 -50.638903 -167.265261 -0.000000 0.130542 0.273721 -0.163247 -33.440395 572.072071 -0.000000 0.428998 0.326111 -0.414520
5.425000 -52.156246 -158.669205 -0.000000 0.130231 0.283788 -0.163341 -40.676718 586.145820 -0.000000 0.429420 0.315351 -0.414654
5.430000 -50.844856 -147.895366 -0.000000 0.130670 0.294022 -0.163410 -46.967177 597.891841 -0.000000 0.429486 0.304591 -0.414834
5.435000 -47.076616 -135.643886 -0.000000 0.131751 0.304351 -0.163550 -51.693014 608.138011 -0.000000 0.428708 0.293739 -0.414399
5.440000 -41.243704 -122.573178 -0.000000 0.133295 0.314796 -0.163791 -54.589709 617.631082 -0.000000 0.427502 0.282914 -0.414225
5.445000 -33.849601 -109.273852 -0.000000 0.135415 0.325323 -0.164092 -55.337498 627.036611 -0.000000 0.425697 0.272045 -0.414221
5.450000 -25.295242 -96.278725 -0.000000 0.138046 0.335763 -0.164461 -54.579951 636.814635 -0.000000 0.423360 0.261377 -0.414331
5.455000 -16.209709 -83.920922 -0.000000 0.141302 0.346245 -0.164753 -51.685562 647.389236 -0.000000 0.420417 0.250889 -0.414269
5.460000 -7.006103 -72.468479 -0.000000 0.144935 0.356529 -0.165105 -47.086486 658.967485 -0.000000 0.416960 0.240556 -0.414138
5.465000 1.837696 -62.077021 -0.000000 0.149181 0.366700 -0.165610 -40.130100 671.715893 -0.000000 0.412895 0.230370 -0.414067
